<?xml version="1.0" encoding="UTF-8"?>
<!DOCTYPE svg PUBLIC "-//W3C//DTD SVG 1.1//EN" "http://www.w3.org/Graphics/SVG/1.1/DTD/svg11.dtd">
<svg xmlns="http://www.w3.org/2000/svg" version="1.1" width="280px" height="280px" style="shape-rendering:geometricPrecision; text-rendering:geometricPrecision; image-rendering:optimizeQuality; fill-rule:evenodd; clip-rule:evenodd" xmlns:xlink="http://www.w3.org/1999/xlink">
<g><path style="opacity:0.986" fill="#1196db" d="M 279.5,111.5 C 279.5,114.833 279.5,118.167 279.5,121.5C 273.266,137.117 261.933,142.951 245.5,139C 217.333,169.167 189.167,199.333 161,229.5C 163.291,238.447 162.291,247.114 158,255.5C 148.253,265.311 137.087,267.145 124.5,261C 116.387,254.655 113.054,246.488 114.5,236.5C 96.274,226.43 78.4407,215.763 61,204.5C 48.2678,212.19 36.6012,210.856 26,200.5C 19.0888,187.145 21.2554,175.479 32.5,165.5C 28.1756,147.202 24.0089,128.869 20,110.5C 15.4916,108.159 10.9916,105.659 6.5,103C 3.04803,99.7435 0.7147,95.9101 -0.5,91.5C -0.5,87.1667 -0.5,82.8333 -0.5,78.5C 4.31987,66.4133 13.3199,60.9133 26.5,62C 30.7951,62.8978 34.6284,64.7311 38,67.5C 55.8333,57 73.6667,46.5 91.5,36C 97.8863,16.1383 110.553,10.4716 129.5,19C 134.809,23.78 138.475,29.6134 140.5,36.5C 173.917,56.9589 207.417,77.2923 241,97.5C 259.073,88.0228 271.907,92.6894 279.5,111.5 Z M 95.5,52.5 C 99.4672,55.612 103.634,58.612 108,61.5C 108.822,75.0752 108.656,88.5752 107.5,102C 101.07,103.632 95.9031,107.132 92,112.5C 77.0172,105.674 61.8505,99.3406 46.5,93.5C 46.203,89.2325 46.5363,85.0659 47.5,81C 63.7284,71.7257 79.7284,62.2257 95.5,52.5 Z M 135.5,52.5 C 168.009,72.2525 200.342,92.2525 232.5,112.5C 203.226,115.408 173.892,117.242 144.5,118C 140.072,110.038 133.572,104.538 125,101.5C 124.333,88.1667 124.333,74.8333 125,61.5C 129.865,59.9994 133.365,56.9994 135.5,52.5 Z M 36.5,106.5 C 52.5945,113.045 68.5945,119.879 84.5,127C 84.4019,132.738 85.4019,138.405 87.5,144C 78.5,151 69.5,158 60.5,165C 56.8442,164.696 53.1775,164.029 49.5,163C 44.9358,144.242 40.6025,125.408 36.5,106.5 Z M 213.5,130.5 C 219.206,130.171 224.872,130.505 230.5,131.5C 203.472,160.193 176.472,188.86 149.5,217.5C 147.229,218.363 144.895,218.363 142.5,217.5C 138.504,198.847 134.504,180.181 130.5,161.5C 135.13,157.702 139.297,153.368 143,148.5C 144.799,144.268 146.299,139.935 147.5,135.5C 169.607,133.48 191.607,131.813 213.5,130.5 Z M 96.5,156.5 C 102.444,159.842 108.611,162.509 115,164.5C 118.833,182.5 122.667,200.5 126.5,218.5C 126.272,220.397 125.272,221.73 123.5,222.5C 105.584,211.959 87.7506,201.292 70,190.5C 70.3535,186.54 70.3535,182.54 70,178.5C 79.3151,171.679 88.1484,164.346 96.5,156.5 Z"/></g>
</svg>
